<svg width="1301" height="609" viewBox="0 0 1301 609" fill="none" xmlns="http://www.w3.org/2000/svg">
<g id="Wolken bew&#195;&#182;lkt">
<g id="Union" filter="url(#filter0_iif_95_2)">
<path fill-rule="evenodd" clip-rule="evenodd" d="M284.036 555.034C268.937 565.48 250.616 571.6 230.865 571.6C179.192 571.6 137.302 529.711 137.302 478.038C137.302 426.364 179.192 384.475 230.865 384.475C234.149 384.475 237.393 384.644 240.59 384.974C238.348 377.047 237.149 368.682 237.149 360.037C237.149 309.521 278.1 268.569 328.617 268.569C375.135 268.569 413.542 303.295 419.331 348.237C427.337 345.039 436.073 343.28 445.221 343.28C482.367 343.28 512.737 372.286 514.918 408.884C544.155 418.27 565.316 445.683 565.316 478.038C565.316 518.142 532.805 550.653 492.7 550.653C475.629 550.653 459.934 544.763 447.536 534.903C431.785 567.762 398.212 590.452 359.339 590.452C329.043 590.452 301.966 576.67 284.036 555.034Z" fill="#D9D9D9"/>
</g>
<g id="Union_2" filter="url(#filter1_iif_95_2)">
<path fill-rule="evenodd" clip-rule="evenodd" d="M952.916 370.468C935.305 383.249 913.935 390.736 890.898 390.736C830.626 390.736 781.767 339.488 781.767 276.269C781.767 213.051 830.626 161.802 890.898 161.802C894.728 161.802 898.512 162.009 902.241 162.413C899.626 152.715 898.227 142.481 898.227 131.904C898.227 70.1013 945.993 20 1004.92 20C1059.17 20 1103.97 62.484 1110.72 117.468C1120.06 113.555 1130.25 111.403 1140.92 111.403C1184.25 111.403 1219.67 146.89 1222.22 191.665C1256.32 203.148 1281 236.685 1281 276.269C1281 325.334 1243.08 365.109 1196.3 365.109C1176.39 365.109 1158.08 357.903 1143.62 345.84C1125.25 386.04 1086.09 413.801 1040.75 413.801C1005.41 413.801 973.83 396.939 952.916 370.468Z" fill="#D9D9D9"/>
</g>
<g id="Union_3" filter="url(#filter2_iif_95_2)">
<path fill-rule="evenodd" clip-rule="evenodd" d="M1025.56 537.221C1042.44 548.895 1062.91 555.733 1084.98 555.733C1142.72 555.733 1189.53 508.924 1189.53 451.181C1189.53 393.439 1142.72 346.63 1084.98 346.63C1081.31 346.63 1077.69 346.819 1074.11 347.187C1076.62 338.329 1077.96 328.982 1077.96 319.321C1077.96 262.871 1032.2 217.11 975.747 217.11C923.765 217.11 880.847 255.914 874.378 306.135C865.432 302.561 855.669 300.595 845.447 300.595C803.938 300.595 770 333.009 767.563 373.905C734.892 384.394 711.246 415.026 711.246 451.182C711.246 495.997 747.576 532.326 792.391 532.326C811.467 532.326 829.006 525.744 842.859 514.726C860.461 551.444 897.978 576.8 941.416 576.8C975.271 576.8 1005.53 561.399 1025.56 537.221Z" fill="#D9D9D9"/>
</g>
<g id="Union_4" filter="url(#filter3_iif_95_2)">
<path fill-rule="evenodd" clip-rule="evenodd" d="M218.438 438.307C198.018 452.085 173.241 460.156 146.531 460.156C76.6498 460.156 20 404.91 20 336.759C20 268.609 76.6498 213.362 146.531 213.362C150.972 213.362 155.359 213.585 159.682 214.021C156.651 203.565 155.029 192.533 155.029 181.132C155.029 114.507 210.411 60.4972 278.727 60.4972C341.636 60.4972 393.577 106.296 401.405 165.569C412.232 161.351 424.048 159.031 436.418 159.031C486.653 159.031 527.725 197.286 530.675 245.554C570.214 257.933 598.831 294.087 598.831 336.759C598.831 389.652 554.864 432.53 500.628 432.53C477.542 432.53 456.316 424.761 439.55 411.757C418.248 455.094 372.845 485.02 320.275 485.02C279.303 485.02 242.686 466.843 218.438 438.307Z" fill="#D9D9D9"/>
</g>
<g id="Union_5" filter="url(#filter4_iif_95_2)">
<path fill-rule="evenodd" clip-rule="evenodd" d="M582.878 564.809C567.778 575.256 549.457 581.375 529.707 581.375C478.033 581.375 436.144 539.486 436.144 487.813C436.144 436.14 478.033 394.25 529.707 394.25C532.99 394.25 536.235 394.419 539.431 394.75C537.19 386.822 535.991 378.457 535.991 369.812C535.991 319.296 576.942 278.344 627.458 278.344C673.976 278.344 712.384 313.07 718.172 358.012C726.178 354.814 734.915 353.055 744.063 353.055C781.208 353.055 811.579 382.061 813.76 418.659C842.997 428.045 864.158 455.458 864.158 487.813C864.158 527.917 831.647 560.429 791.542 560.429C774.471 560.429 758.776 554.538 746.378 544.678C730.627 577.537 697.053 600.228 658.181 600.228C627.885 600.228 600.808 586.445 582.878 564.809Z" fill="#D9D9D9"/>
</g>
</g>
<defs>
<filter id="filter0_iif_95_2" x="117.302" y="243.569" width="478.014" height="366.883" filterUnits="userSpaceOnUse" color-interpolation-filters="sRGB">
<feFlood flood-opacity="0" result="BackgroundImageFix"/>
<feBlend mode="normal" in="SourceGraphic" in2="BackgroundImageFix" result="shape"/>
<feColorMatrix in="SourceAlpha" type="matrix" values="0 0 0 0 0 0 0 0 0 0 0 0 0 0 0 0 0 0 127 0" result="hardAlpha"/>
<feOffset dx="30" dy="-25"/>
<feGaussianBlur stdDeviation="30"/>
<feComposite in2="hardAlpha" operator="arithmetic" k2="-1" k3="1"/>
<feColorMatrix type="matrix" values="0 0 0 0 0.588235 0 0 0 0 0.803922 0 0 0 0 0.980392 0 0 0 1 0"/>
<feBlend mode="normal" in2="shape" result="effect1_innerShadow_95_2"/>
<feColorMatrix in="SourceAlpha" type="matrix" values="0 0 0 0 0 0 0 0 0 0 0 0 0 0 0 0 0 0 127 0" result="hardAlpha"/>
<feOffset dx="10" dy="10"/>
<feGaussianBlur stdDeviation="5"/>
<feComposite in2="hardAlpha" operator="arithmetic" k2="-1" k3="1"/>
<feColorMatrix type="matrix" values="0 0 0 0 0.588235 0 0 0 0 0.803922 0 0 0 0 0.980392 0 0 0 1 0"/>
<feBlend mode="normal" in2="effect1_innerShadow_95_2" result="effect2_innerShadow_95_2"/>
<feGaussianBlur stdDeviation="10" result="effect3_foregroundBlur_95_2"/>
</filter>
<filter id="filter1_iif_95_2" x="761.767" y="-5" width="549.233" height="438.801" filterUnits="userSpaceOnUse" color-interpolation-filters="sRGB">
<feFlood flood-opacity="0" result="BackgroundImageFix"/>
<feBlend mode="normal" in="SourceGraphic" in2="BackgroundImageFix" result="shape"/>
<feColorMatrix in="SourceAlpha" type="matrix" values="0 0 0 0 0 0 0 0 0 0 0 0 0 0 0 0 0 0 127 0" result="hardAlpha"/>
<feOffset dx="30" dy="-25"/>
<feGaussianBlur stdDeviation="30"/>
<feComposite in2="hardAlpha" operator="arithmetic" k2="-1" k3="1"/>
<feColorMatrix type="matrix" values="0 0 0 0 0.588235 0 0 0 0 0.803922 0 0 0 0 0.980392 0 0 0 1 0"/>
<feBlend mode="normal" in2="shape" result="effect1_innerShadow_95_2"/>
<feColorMatrix in="SourceAlpha" type="matrix" values="0 0 0 0 0 0 0 0 0 0 0 0 0 0 0 0 0 0 127 0" result="hardAlpha"/>
<feOffset dx="10" dy="10"/>
<feGaussianBlur stdDeviation="5"/>
<feComposite in2="hardAlpha" operator="arithmetic" k2="-1" k3="1"/>
<feColorMatrix type="matrix" values="0 0 0 0 0.588235 0 0 0 0 0.803922 0 0 0 0 0.980392 0 0 0 1 0"/>
<feBlend mode="normal" in2="effect1_innerShadow_95_2" result="effect2_innerShadow_95_2"/>
<feGaussianBlur stdDeviation="10" result="effect3_foregroundBlur_95_2"/>
</filter>
<filter id="filter2_iif_95_2" x="691.246" y="192.11" width="528.286" height="404.69" filterUnits="userSpaceOnUse" color-interpolation-filters="sRGB">
<feFlood flood-opacity="0" result="BackgroundImageFix"/>
<feBlend mode="normal" in="SourceGraphic" in2="BackgroundImageFix" result="shape"/>
<feColorMatrix in="SourceAlpha" type="matrix" values="0 0 0 0 0 0 0 0 0 0 0 0 0 0 0 0 0 0 127 0" result="hardAlpha"/>
<feOffset dx="30" dy="-25"/>
<feGaussianBlur stdDeviation="30"/>
<feComposite in2="hardAlpha" operator="arithmetic" k2="-1" k3="1"/>
<feColorMatrix type="matrix" values="0 0 0 0 0.588235 0 0 0 0 0.803922 0 0 0 0 0.980392 0 0 0 1 0"/>
<feBlend mode="normal" in2="shape" result="effect1_innerShadow_95_2"/>
<feColorMatrix in="SourceAlpha" type="matrix" values="0 0 0 0 0 0 0 0 0 0 0 0 0 0 0 0 0 0 127 0" result="hardAlpha"/>
<feOffset dx="10" dy="10"/>
<feGaussianBlur stdDeviation="5"/>
<feComposite in2="hardAlpha" operator="arithmetic" k2="-1" k3="1"/>
<feColorMatrix type="matrix" values="0 0 0 0 0.588235 0 0 0 0 0.803922 0 0 0 0 0.980392 0 0 0 1 0"/>
<feBlend mode="normal" in2="effect1_innerShadow_95_2" result="effect2_innerShadow_95_2"/>
<feGaussianBlur stdDeviation="10" result="effect3_foregroundBlur_95_2"/>
</filter>
<filter id="filter3_iif_95_2" x="0" y="35.4972" width="628.831" height="469.523" filterUnits="userSpaceOnUse" color-interpolation-filters="sRGB">
<feFlood flood-opacity="0" result="BackgroundImageFix"/>
<feBlend mode="normal" in="SourceGraphic" in2="BackgroundImageFix" result="shape"/>
<feColorMatrix in="SourceAlpha" type="matrix" values="0 0 0 0 0 0 0 0 0 0 0 0 0 0 0 0 0 0 127 0" result="hardAlpha"/>
<feOffset dx="30" dy="-25"/>
<feGaussianBlur stdDeviation="30"/>
<feComposite in2="hardAlpha" operator="arithmetic" k2="-1" k3="1"/>
<feColorMatrix type="matrix" values="0 0 0 0 0.588235 0 0 0 0 0.803922 0 0 0 0 0.980392 0 0 0 1 0"/>
<feBlend mode="normal" in2="shape" result="effect1_innerShadow_95_2"/>
<feColorMatrix in="SourceAlpha" type="matrix" values="0 0 0 0 0 0 0 0 0 0 0 0 0 0 0 0 0 0 127 0" result="hardAlpha"/>
<feOffset dx="10" dy="10"/>
<feGaussianBlur stdDeviation="5"/>
<feComposite in2="hardAlpha" operator="arithmetic" k2="-1" k3="1"/>
<feColorMatrix type="matrix" values="0 0 0 0 0.588235 0 0 0 0 0.803922 0 0 0 0 0.980392 0 0 0 1 0"/>
<feBlend mode="normal" in2="effect1_innerShadow_95_2" result="effect2_innerShadow_95_2"/>
<feGaussianBlur stdDeviation="10" result="effect3_foregroundBlur_95_2"/>
</filter>
<filter id="filter4_iif_95_2" x="416.144" y="253.344" width="478.014" height="366.883" filterUnits="userSpaceOnUse" color-interpolation-filters="sRGB">
<feFlood flood-opacity="0" result="BackgroundImageFix"/>
<feBlend mode="normal" in="SourceGraphic" in2="BackgroundImageFix" result="shape"/>
<feColorMatrix in="SourceAlpha" type="matrix" values="0 0 0 0 0 0 0 0 0 0 0 0 0 0 0 0 0 0 127 0" result="hardAlpha"/>
<feOffset dx="30" dy="-25"/>
<feGaussianBlur stdDeviation="30"/>
<feComposite in2="hardAlpha" operator="arithmetic" k2="-1" k3="1"/>
<feColorMatrix type="matrix" values="0 0 0 0 0.588235 0 0 0 0 0.803922 0 0 0 0 0.980392 0 0 0 1 0"/>
<feBlend mode="normal" in2="shape" result="effect1_innerShadow_95_2"/>
<feColorMatrix in="SourceAlpha" type="matrix" values="0 0 0 0 0 0 0 0 0 0 0 0 0 0 0 0 0 0 127 0" result="hardAlpha"/>
<feOffset dx="10" dy="10"/>
<feGaussianBlur stdDeviation="5"/>
<feComposite in2="hardAlpha" operator="arithmetic" k2="-1" k3="1"/>
<feColorMatrix type="matrix" values="0 0 0 0 0.588235 0 0 0 0 0.803922 0 0 0 0 0.980392 0 0 0 1 0"/>
<feBlend mode="normal" in2="effect1_innerShadow_95_2" result="effect2_innerShadow_95_2"/>
<feGaussianBlur stdDeviation="10" result="effect3_foregroundBlur_95_2"/>
</filter>
</defs>
</svg>
