<svg width="58" height="65" viewBox="0 0 58 65" fill="none" xmlns="http://www.w3.org/2000/svg">
<g clip-path="url(#clip0_2_1567)">
<path d="M41.5097 5.54882C40.004 5.54882 38.7803 4.33035 38.7803 2.83105C38.7803 1.33175 40.004 0.113281 41.5097 0.113281C43.0154 0.113281 44.2391 1.33175 44.2391 2.83105C44.2391 4.33035 43.0154 5.54882 41.5097 5.54882Z" fill="white"/>
<path d="M41.5101 0.226481C42.9522 0.226481 44.1258 1.39512 44.1258 2.83101C44.1258 4.2669 42.9522 5.43554 41.5101 5.43554C40.0681 5.43554 38.8944 4.2669 38.8944 2.83101C38.8944 1.39512 40.0681 0.226481 41.5101 0.226481ZM41.5101 0C39.9407 0 38.667 1.26829 38.667 2.83101C38.667 4.39373 39.9407 5.66202 41.5101 5.66202C43.0795 5.66202 44.3533 4.39373 44.3533 2.83101C44.3533 1.26829 43.0795 0 41.5101 0Z" fill="white"/>
<path d="M33.0937 12.1172C31.5879 12.1172 30.3643 10.8987 30.3643 9.39941C30.3643 7.90011 31.5879 6.68164 33.0937 6.68164C34.5994 6.68164 35.8231 7.90011 35.8231 9.39941C35.8231 10.8987 34.5994 12.1172 33.0937 12.1172Z" fill="white"/>
<path d="M33.0941 6.79484C34.5362 6.79484 35.7098 7.96348 35.7098 9.39937C35.7098 10.8353 34.5362 12.0039 33.0941 12.0039C31.6521 12.0039 30.4784 10.8353 30.4784 9.39937C30.4784 7.96348 31.6521 6.79484 33.0941 6.79484ZM33.0941 6.56836C31.5247 6.56836 30.251 7.83665 30.251 9.39937C30.251 10.9621 31.5247 12.2304 33.0941 12.2304C34.6635 12.2304 35.9373 10.9621 35.9373 9.39937C35.9373 7.83665 34.6635 6.56836 33.0941 6.56836Z" fill="white"/>
<path d="M16.7167 9.17284C15.211 9.17284 13.9873 7.95438 13.9873 6.45507C13.9873 4.95577 15.211 3.7373 16.7167 3.7373C18.2224 3.7373 19.4461 4.95577 19.4461 6.45507C19.4461 7.95438 18.2224 9.17284 16.7167 9.17284Z" fill="white"/>
<path d="M16.7172 3.8505C18.1592 3.8505 19.3328 5.01915 19.3328 6.45503C19.3328 7.89092 18.1592 9.05956 16.7172 9.05956C15.2751 9.05956 14.1015 7.89092 14.1015 6.45503C14.1015 5.01915 15.2751 3.8505 16.7172 3.8505ZM16.7172 3.62402C15.1477 3.62402 13.874 4.89232 13.874 6.45503C13.874 8.01775 15.1477 9.28604 16.7172 9.28604C18.2866 9.28604 19.5603 8.01775 19.5603 6.45503C19.5603 4.89232 18.2866 3.62402 16.7172 3.62402Z" fill="white"/>
<path d="M44.4657 26.6113C42.96 26.6113 41.7363 25.3929 41.7363 23.8936C41.7363 22.3942 42.96 21.1758 44.4657 21.1758C45.9715 21.1758 47.1952 22.3942 47.1952 23.8936C47.1952 25.3929 45.9715 26.6113 44.4657 26.6113Z" fill="white"/>
<path d="M44.4662 21.289C45.9082 21.289 47.0819 22.4576 47.0819 23.8935C47.0819 25.3294 45.9082 26.498 44.4662 26.498C43.0241 26.498 41.8505 25.3294 41.8505 23.8935C41.8505 22.4576 43.0241 21.289 44.4662 21.289ZM44.4662 21.0625C42.8968 21.0625 41.623 22.3308 41.623 23.8935C41.623 25.4562 42.8968 26.7245 44.4662 26.7245C46.0356 26.7245 47.3093 25.4562 47.3093 23.8935C47.3093 22.3308 46.0356 21.0625 44.4662 21.0625Z" fill="white"/>
<path d="M30.1366 31.5937C28.6309 31.5937 27.4072 30.3753 27.4072 28.876C27.4072 27.3767 28.6309 26.1582 30.1366 26.1582C31.6424 26.1582 32.8661 27.3767 32.8661 28.876C32.8661 30.3753 31.6424 31.5937 30.1366 31.5937Z" fill="white"/>
<path d="M30.1371 26.2714C31.5791 26.2714 32.7528 27.44 32.7528 28.8759C32.7528 30.3118 31.5791 31.4805 30.1371 31.4805C28.695 31.4805 27.5214 30.3118 27.5214 28.8759C27.5214 27.44 28.695 26.2714 30.1371 26.2714ZM30.1371 26.0449C28.5677 26.0449 27.2939 27.3132 27.2939 28.8759C27.2939 30.4387 28.5677 31.7069 30.1371 31.7069C31.7065 31.7069 32.9802 30.4387 32.9802 28.8759C32.9802 27.3132 31.7065 26.0449 30.1371 26.0449Z" fill="white"/>
<path d="M44.4657 44.5039C42.96 44.5039 41.7363 43.2854 41.7363 41.7861C41.7363 40.2868 42.96 39.0684 44.4657 39.0684C45.9715 39.0684 47.1952 40.2868 47.1952 41.7861C47.1952 43.2854 45.9715 44.5039 44.4657 44.5039Z" fill="white"/>
<path d="M44.4662 39.1816C45.9082 39.1816 47.0819 40.3502 47.0819 41.7861C47.0819 43.222 45.9082 44.3906 44.4662 44.3906C43.0241 44.3906 41.8505 43.222 41.8505 41.7861C41.8505 40.3502 43.0241 39.1816 44.4662 39.1816ZM44.4662 38.9551C42.8968 38.9551 41.623 40.2234 41.623 41.7861C41.623 43.3488 42.8968 44.6171 44.4662 44.6171C46.0356 44.6171 47.3093 43.3488 47.3093 41.7861C47.3093 40.2234 46.0356 38.9551 44.4662 38.9551Z" fill="white"/>
<path d="M18.3095 48.5801C16.8038 48.5801 15.5801 47.3616 15.5801 45.8623C15.5801 44.363 16.8038 43.1445 18.3095 43.1445C19.8152 43.1445 21.0389 44.363 21.0389 45.8623C21.0389 47.3616 19.8152 48.5801 18.3095 48.5801Z" fill="white"/>
<path d="M18.3099 43.2577C19.752 43.2577 20.9256 44.4264 20.9256 45.8623C20.9256 47.2981 19.752 48.4668 18.3099 48.4668C16.8679 48.4668 15.6942 47.2981 15.6942 45.8623C15.6942 44.4264 16.8679 43.2577 18.3099 43.2577ZM18.3099 43.0312C16.7405 43.0312 15.4668 44.2995 15.4668 45.8623C15.4668 47.425 16.7405 48.6933 18.3099 48.6933C19.8793 48.6933 21.1531 47.425 21.1531 45.8623C21.1531 44.2995 19.8793 43.0312 18.3099 43.0312Z" fill="white"/>
<path d="M2.84269 64.8867C1.33697 64.8867 0.113281 63.6682 0.113281 62.1689C0.113281 60.6696 1.33697 59.4512 2.84269 59.4512C4.34842 59.4512 5.5721 60.6696 5.5721 62.1689C5.5721 63.6682 4.34842 64.8867 2.84269 64.8867Z" fill="white"/>
<path d="M2.84314 59.5644C4.28518 59.5644 5.45882 60.733 5.45882 62.1689C5.45882 63.6048 4.28518 64.7734 2.84314 64.7734C1.4011 64.7734 0.227451 63.6048 0.227451 62.1689C0.227451 60.733 1.4011 59.5644 2.84314 59.5644ZM2.84314 59.3379C1.27373 59.3379 0 60.6062 0 62.1689C0 63.7316 1.27373 64.9999 2.84314 64.9999C4.41255 64.9999 5.68628 63.7316 5.68628 62.1689C5.68628 60.6062 4.41255 59.3379 2.84314 59.3379Z" fill="white"/>
<path d="M29.9091 53.7891C28.4034 53.7891 27.1797 52.5706 27.1797 51.0713C27.1797 49.572 28.4034 48.3535 29.9091 48.3535C31.4148 48.3535 32.6385 49.572 32.6385 51.0713C32.6385 52.5706 31.4148 53.7891 29.9091 53.7891Z" fill="white"/>
<path d="M29.9095 48.4667C31.3516 48.4667 32.5252 49.6354 32.5252 51.0712C32.5252 52.5071 31.3516 53.6758 29.9095 53.6758C28.4675 53.6758 27.2939 52.5071 27.2939 51.0712C27.2939 49.6354 28.4675 48.4667 29.9095 48.4667ZM29.9095 48.2402C28.3401 48.2402 27.0664 49.5085 27.0664 51.0712C27.0664 52.634 28.3401 53.9023 29.9095 53.9023C31.479 53.9023 32.7527 52.634 32.7527 51.0712C32.7527 49.5085 31.479 48.2402 29.9095 48.2402Z" fill="white"/>
<path d="M10.8036 18.9111C9.29791 18.9111 8.07422 17.6927 8.07422 16.1934C8.07422 14.6941 9.29791 13.4756 10.8036 13.4756C12.3094 13.4756 13.533 14.6941 13.533 16.1934C13.533 17.6927 12.3094 18.9111 10.8036 18.9111Z" fill="white"/>
<path d="M10.8041 13.5888C12.2461 13.5888 13.4198 14.7574 13.4198 16.1933C13.4198 17.6292 12.2461 18.7978 10.8041 18.7978C9.36204 18.7978 8.18839 17.6292 8.18839 16.1933C8.18839 14.7574 9.36204 13.5888 10.8041 13.5888ZM10.8041 13.3623C9.23466 13.3623 7.96094 14.6306 7.96094 16.1933C7.96094 17.756 9.23466 19.0243 10.8041 19.0243C12.3735 19.0243 13.6472 17.756 13.6472 16.1933C13.6472 14.6306 12.3735 13.3623 10.8041 13.3623Z" fill="white"/>
<path d="M55.1562 36.5771C53.6504 36.5771 52.4268 35.3587 52.4268 33.8594C52.4268 32.3601 53.6504 31.1416 55.1562 31.1416C56.6619 31.1416 57.8856 32.3601 57.8856 33.8594C57.8856 35.3587 56.6619 36.5771 55.1562 36.5771Z" fill="white"/>
<path d="M55.1566 31.2548C56.5987 31.2548 57.7723 32.4234 57.7723 33.8593C57.7723 35.2952 56.5987 36.4639 55.1566 36.4639C53.7146 36.4639 52.5409 35.2952 52.5409 33.8593C52.5409 32.4234 53.7146 31.2548 55.1566 31.2548ZM55.1566 31.0283C53.5872 31.0283 52.3135 32.2966 52.3135 33.8593C52.3135 35.422 53.5872 36.6903 55.1566 36.6903C56.726 36.6903 57.9998 35.422 57.9998 33.8593C57.9998 32.2966 56.726 31.0283 55.1566 31.0283Z" fill="white"/>
<path d="M41.51 2.83105L33.0944 9.399L16.7179 6.45475L9.43945 16.8729" stroke="white" stroke-width="4" stroke-miterlimit="10"/>
<path d="M2.84277 62.1695L18.3094 45.8628L30.1369 28.8768L33.0938 9.39941L44.4663 23.8942L55.1565 33.1799" stroke="white" stroke-width="4" stroke-miterlimit="10"/>
<path d="M27.8623 52.43L44.4662 41.7854L30.1368 28.876" stroke="white" stroke-width="4" stroke-miterlimit="10"/>
</g>
<defs>
<clipPath id="clip0_2_1567">
<rect width="58" height="65" fill="white"/>
</clipPath>
</defs>
</svg>
