<svg width="167" height="70" viewBox="0 0 167 70" fill="none" xmlns="http://www.w3.org/2000/svg">
<g id="Group 28">
<g id="Group 16">
<g id="Ellipse 8" filter="url(#filter0_i_90_48)">
<path d="M101.285 18.3984C102.76 22.828 100.754 27.4856 96.803 28.8014C92.8523 30.1173 88.4536 27.5931 86.9783 23.1635C85.5029 18.734 87.5096 14.0764 91.4603 12.7605C95.411 11.4447 99.8097 13.9688 101.285 18.3984Z" fill="#EFEBE0"/>
</g>
<path id="Subtract" fill-rule="evenodd" clip-rule="evenodd" d="M98.4961 28.4235C102.447 27.1077 104.454 22.4501 102.978 18.0205C101.503 13.5909 97.1041 11.0667 93.1534 12.3826C93.0977 12.4011 93.0423 12.4204 92.9873 12.4403C96.4858 12.1197 99.9979 14.5339 101.285 18.3983C102.739 22.7654 100.81 27.3541 96.969 28.7437C97.4807 28.6968 97.9921 28.5914 98.4961 28.4235Z" fill="url(#paint0_linear_90_48)"/>
</g>
<g id="Group 20">
<g id="Vector 13">
<path d="M59.6636 52.4731L59.6636 32.5029L59.4528 12.7893C59.4417 11.7521 58.6395 10.8955 57.6053 10.8165L6.10804 6.88248C4.94682 6.79377 3.9557 7.71207 3.9557 8.87667L3.95564 46.5349C3.95564 47.5512 4.71781 48.4059 5.72746 48.5219L57.4354 54.4601C58.6226 54.5964 59.6636 53.6681 59.6636 52.4731Z" fill="url(#paint1_linear_90_48)"/>
<path d="M78.7358 32.8119L59.6636 32.5029M59.6636 32.5029L59.6636 52.4731C59.6636 53.6681 58.6226 54.5964 57.4354 54.4601L5.72746 48.5219C4.71781 48.4059 3.95564 47.5512 3.95564 46.5349L3.9557 8.87667C3.9557 7.71207 4.94682 6.79378 6.10804 6.88248L57.6053 10.8165C58.6395 10.8955 59.4417 11.7521 59.4528 12.7893L59.6636 32.5029Z" stroke="#776D5E" stroke-width="3" stroke-linecap="round"/>
</g>
<g id="Vector 14" filter="url(#filter1_i_90_48)">
<path d="M78.8864 33.4384L59.8552 32.1499M59.8552 32.1499L59.8552 52.042C59.8552 53.2277 58.8295 54.1531 57.6501 54.0315L5.79488 48.685C4.77513 48.5799 4 47.7207 4 46.6956L4 9.1493C4 7.98811 4.98558 7.071 6.14377 7.15448L57.6748 10.8684C58.708 10.9429 59.5133 11.7939 59.5307 12.8297L59.8552 32.1499Z" stroke="#776D5E" stroke-width="3" stroke-linecap="round"/>
</g>
</g>
<g id="Group 17">
<path id="Ellipse 8_2" d="M96.439 20.4139C97.3061 23.0172 96.1268 25.7545 93.8049 26.5279C91.483 27.3012 88.8979 25.8177 88.0308 23.2144C87.1637 20.6111 88.3431 17.8738 90.665 17.1005C92.9868 16.3271 95.572 17.8106 96.439 20.4139Z" fill="#EFEBE0"/>
<path id="Subtract_2" fill-rule="evenodd" clip-rule="evenodd" d="M95.3832 25.6593C97.7051 24.886 98.8844 22.1487 98.0174 19.5454C97.1503 16.9421 94.5651 15.4586 92.2433 16.2319C91.7117 16.409 91.2401 16.6889 90.8391 17.0467C93.1147 16.4017 95.5935 17.8754 96.439 20.4138C97.1075 22.4211 96.5594 24.5081 95.209 25.713C95.2672 25.6965 95.3253 25.6786 95.3832 25.6593Z" fill="url(#paint2_linear_90_48)"/>
</g>
<g id="Group 15">
<g id="Exclude" filter="url(#filter2_i_90_48)">
<path fill-rule="evenodd" clip-rule="evenodd" d="M81.1578 14.3337L82.9411 14.5593L90.5143 15.5171L97.0732 16.3467V22.9579V33.4678V36.9599L94.4007 39.2076L78.9162 52.2308L76.0353 54.6538L72.371 53.7916L60.7186 51.0499L54.9108 49.6833L54.9365 43.7169L55.0001 28.9677L55.0227 23.7156L59.966 21.941L79.466 14.941L81.1578 14.3337Z" fill="#776D5E"/>
</g>
<g id="Subtract_3" filter="url(#filter3_i_90_48)">
<path fill-rule="evenodd" clip-rule="evenodd" d="M82.4513 13.739C82.5926 13.6884 82.7436 13.6702 82.8929 13.6859L83.0063 13.6978L96.1792 15.081L96.6269 15.128C97.136 15.1815 97.5225 15.6107 97.5225 16.1226V16.5728V35.9378V36.1694C97.5225 36.4632 97.3933 36.7421 97.1692 36.9321L96.9926 37.0819L76.1933 54.7178L76.0139 54.8699C75.7866 55.0627 75.4852 55.144 75.1918 55.0917L74.9602 55.0505L55.5475 51.5924L55.1352 51.519C54.6581 51.434 54.3106 51.0191 54.3106 50.5345V50.1157V24.8721V24.52C54.3106 24.0977 54.5759 23.7209 54.9734 23.5786L55.3049 23.4599L82.3439 13.7774L82.4513 13.739ZM83.2601 16.7409C83.1108 16.7253 82.9598 16.7434 82.8185 16.794L66.1921 22.7478C65.2008 23.1028 65.3607 24.5513 66.4055 24.6816L74.6415 25.7085C74.8415 25.7335 75.0443 25.6974 75.2234 25.6051L87.8955 19.074C88.7784 18.6189 88.5296 17.2943 87.5418 17.1905L83.2601 16.7409ZM94.5225 20.6738C94.5225 19.9251 93.7299 19.4419 93.0644 19.7849L77.2651 27.9278C76.9323 28.0993 76.7232 28.4423 76.7232 28.8167V48.1762C76.7232 49.0281 77.7202 49.4898 78.37 48.9389L94.1692 35.5426C94.3933 35.3525 94.5225 35.0736 94.5225 34.7798V20.6738ZM72.5479 51.5735C73.1607 51.6827 73.7232 51.2115 73.7232 50.589V29.5003C73.7232 28.9959 73.3475 28.5704 72.847 28.508L58.4343 26.7109C57.8376 26.6364 57.3106 27.1018 57.3106 27.7032V48.0217C57.3106 48.5063 57.6581 48.9212 58.1352 49.0062L72.5479 51.5735Z" fill="#EFEBE0"/>
</g>
</g>
<g id="Group 14">
<g id="Ellipse 9" filter="url(#filter4_i_90_48)">
<path d="M66.6006 40.1641C69.0508 47.7894 65.5239 55.7425 58.723 57.9278C51.9221 60.1132 44.4225 55.7033 41.9723 48.078C39.522 40.4527 43.0489 32.4997 49.8498 30.3143C56.6507 28.1289 64.1503 32.5388 66.6006 40.1641Z" fill="#EFEBE0"/>
</g>
<path id="Subtract_4" fill-rule="evenodd" clip-rule="evenodd" d="M63.3568 55.4415C70.1577 53.2562 73.6847 45.3031 71.2344 37.6778C68.7841 30.0525 61.2846 25.6426 54.4837 27.828C52.9264 28.3284 51.5408 29.1312 50.3593 30.1632C57.0212 28.3508 64.2112 32.7289 66.6005 40.1642C68.4897 46.0434 66.8256 52.1175 62.8472 55.5926C63.0175 55.5463 63.1874 55.496 63.3568 55.4415Z" fill="url(#paint3_linear_90_48)"/>
</g>
<g id="Group 18">
<g id="Vector 11" filter="url(#filter5_i_90_48)">
<path d="M58.3239 54.4869L40.0457 53.3448M40.0457 53.3448L63.1219 41.2354M40.0457 53.3448L48.0425 52.2022M40.0457 53.3448L51.2411 35.2949M40.0457 53.3448L35.9331 54.9441" stroke="#EFEBE0" stroke-width="2" stroke-linecap="round"/>
</g>
<g id="Vector 12" filter="url(#filter6_i_90_48)">
<path d="M35.2477 55.858L37.761 54.7156L40.2742 53.5732" stroke="#EFEBE0" stroke-width="7" stroke-linecap="round"/>
</g>
</g>
<g id="Group 19">
<g id="Vector 13_2">
<path d="M98.9636 15.1949V34.7053V57.1867C98.9636 58.1831 99.697 59.0275 100.684 59.167L162.942 67.9691C164.146 68.1393 165.222 67.2047 165.222 65.9888V20.9913C165.222 19.9586 164.436 19.0957 163.407 18.9999L101.149 13.2035C99.9763 13.0943 98.9636 14.0171 98.9636 15.1949Z" fill="url(#paint4_linear_90_48)"/>
<path d="M80 32.649L98.9636 34.7053M98.9636 34.7053V15.1949C98.9636 14.0171 99.9763 13.0943 101.149 13.2035L163.407 18.9999C164.436 19.0957 165.222 19.9586 165.222 20.9913V65.9888C165.222 67.2047 164.146 68.1393 162.942 67.9691L100.684 59.167C99.697 59.0275 98.9636 58.1831 98.9636 57.1867V34.7053Z" stroke="#776D5E" stroke-width="3" stroke-linecap="round"/>
</g>
<g id="Vector 14_2" filter="url(#filter7_i_90_48)">
<path d="M87.9966 33.3344L98.9635 34.7053M98.9635 34.7053V15.1949C98.9635 14.0171 99.9762 13.0943 101.149 13.2035L163.407 18.9999C164.436 19.0957 165.222 19.9586 165.222 20.9913V65.9888C165.222 67.2047 164.146 68.1393 162.942 67.9691L100.684 59.167C99.697 59.0275 98.9635 58.1831 98.9635 57.1867V34.7053Z" stroke="#776D5E" stroke-width="3" stroke-linecap="round"/>
</g>
</g>
</g>
<defs>
<filter id="filter0_i_90_48" x="86.4937" y="12.4119" width="16.276" height="16.7383" filterUnits="userSpaceOnUse" color-interpolation-filters="sRGB">
<feFlood flood-opacity="0" result="BackgroundImageFix"/>
<feBlend mode="normal" in="SourceGraphic" in2="BackgroundImageFix" result="shape"/>
<feColorMatrix in="SourceAlpha" type="matrix" values="0 0 0 0 0 0 0 0 0 0 0 0 0 0 0 0 0 0 127 0" result="hardAlpha"/>
<feOffset dx="1"/>
<feGaussianBlur stdDeviation="2"/>
<feComposite in2="hardAlpha" operator="arithmetic" k2="-1" k3="1"/>
<feColorMatrix type="matrix" values="0 0 0 0 0 0 0 0 0 0 0 0 0 0 0 0 0 0 0.25 0"/>
<feBlend mode="normal" in2="shape" result="effect1_innerShadow_90_48"/>
</filter>
<filter id="filter1_i_90_48" x="-0.3" y="2.84917" width="80.6864" height="52.6933" filterUnits="userSpaceOnUse" color-interpolation-filters="sRGB">
<feFlood flood-opacity="0" result="BackgroundImageFix"/>
<feBlend mode="normal" in="SourceGraphic" in2="BackgroundImageFix" result="shape"/>
<feColorMatrix in="SourceAlpha" type="matrix" values="0 0 0 0 0 0 0 0 0 0 0 0 0 0 0 0 0 0 127 0" result="hardAlpha"/>
<feOffset dx="-3" dy="-3"/>
<feGaussianBlur stdDeviation="1.4"/>
<feComposite in2="hardAlpha" operator="arithmetic" k2="-1" k3="1"/>
<feColorMatrix type="matrix" values="0 0 0 0 0 0 0 0 0 0 0 0 0 0 0 0 0 0 0.25 0"/>
<feBlend mode="normal" in2="shape" result="effect1_innerShadow_90_48"/>
</filter>
<filter id="filter2_i_90_48" x="50.9108" y="14.3337" width="46.1624" height="40.3201" filterUnits="userSpaceOnUse" color-interpolation-filters="sRGB">
<feFlood flood-opacity="0" result="BackgroundImageFix"/>
<feBlend mode="normal" in="SourceGraphic" in2="BackgroundImageFix" result="shape"/>
<feColorMatrix in="SourceAlpha" type="matrix" values="0 0 0 0 0 0 0 0 0 0 0 0 0 0 0 0 0 0 127 0" result="hardAlpha"/>
<feOffset dx="-8"/>
<feGaussianBlur stdDeviation="2"/>
<feComposite in2="hardAlpha" operator="arithmetic" k2="-1" k3="1"/>
<feColorMatrix type="matrix" values="0 0 0 0 0 0 0 0 0 0 0 0 0 0 0 0 0 0 0.25 0"/>
<feBlend mode="normal" in2="shape" result="effect1_innerShadow_90_48"/>
</filter>
<filter id="filter3_i_90_48" x="54.3106" y="12.6804" width="45.2119" height="42.4268" filterUnits="userSpaceOnUse" color-interpolation-filters="sRGB">
<feFlood flood-opacity="0" result="BackgroundImageFix"/>
<feBlend mode="normal" in="SourceGraphic" in2="BackgroundImageFix" result="shape"/>
<feColorMatrix in="SourceAlpha" type="matrix" values="0 0 0 0 0 0 0 0 0 0 0 0 0 0 0 0 0 0 127 0" result="hardAlpha"/>
<feOffset dx="2" dy="-1"/>
<feGaussianBlur stdDeviation="1.05"/>
<feComposite in2="hardAlpha" operator="arithmetic" k2="-1" k3="1"/>
<feColorMatrix type="matrix" values="0 0 0 0 0 0 0 0 0 0 0 0 0 0 0 0 0 0 0.25 0"/>
<feBlend mode="normal" in2="shape" result="effect1_innerShadow_90_48"/>
</filter>
<filter id="filter4_i_90_48" x="41.1938" y="29.7546" width="33.9851" height="36.5327" filterUnits="userSpaceOnUse" color-interpolation-filters="sRGB">
<feFlood flood-opacity="0" result="BackgroundImageFix"/>
<feBlend mode="normal" in="SourceGraphic" in2="BackgroundImageFix" result="shape"/>
<feColorMatrix in="SourceAlpha" type="matrix" values="0 0 0 0 0 0 0 0 0 0 0 0 0 0 0 0 0 0 127 0" result="hardAlpha"/>
<feOffset dx="11" dy="13"/>
<feGaussianBlur stdDeviation="3.9"/>
<feComposite in2="hardAlpha" operator="arithmetic" k2="-1" k3="1"/>
<feColorMatrix type="matrix" values="0 0 0 0 0 0 0 0 0 0 0 0 0 0 0 0 0 0 0.25 0"/>
<feBlend mode="normal" in2="shape" result="effect1_innerShadow_90_48"/>
</filter>
<filter id="filter5_i_90_48" x="34.4329" y="34.2947" width="29.6892" height="21.6497" filterUnits="userSpaceOnUse" color-interpolation-filters="sRGB">
<feFlood flood-opacity="0" result="BackgroundImageFix"/>
<feBlend mode="normal" in="SourceGraphic" in2="BackgroundImageFix" result="shape"/>
<feColorMatrix in="SourceAlpha" type="matrix" values="0 0 0 0 0 0 0 0 0 0 0 0 0 0 0 0 0 0 127 0" result="hardAlpha"/>
<feOffset dx="-0.5"/>
<feGaussianBlur stdDeviation="0.85"/>
<feComposite in2="hardAlpha" operator="arithmetic" k2="-1" k3="1"/>
<feColorMatrix type="matrix" values="0 0 0 0 0 0 0 0 0 0 0 0 0 0 0 0 0 0 0.25 0"/>
<feBlend mode="normal" in2="shape" result="effect1_innerShadow_90_48"/>
</filter>
<filter id="filter6_i_90_48" x="31.7469" y="50.0723" width="12.0282" height="9.28662" filterUnits="userSpaceOnUse" color-interpolation-filters="sRGB">
<feFlood flood-opacity="0" result="BackgroundImageFix"/>
<feBlend mode="normal" in="SourceGraphic" in2="BackgroundImageFix" result="shape"/>
<feColorMatrix in="SourceAlpha" type="matrix" values="0 0 0 0 0 0 0 0 0 0 0 0 0 0 0 0 0 0 127 0" result="hardAlpha"/>
<feOffset/>
<feGaussianBlur stdDeviation="2"/>
<feComposite in2="hardAlpha" operator="arithmetic" k2="-1" k3="1"/>
<feColorMatrix type="matrix" values="0 0 0 0 0 0 0 0 0 0 0 0 0 0 0 0 0 0 0.25 0"/>
<feBlend mode="normal" in2="shape" result="effect1_innerShadow_90_48"/>
</filter>
<filter id="filter7_i_90_48" x="83.6965" y="8.89458" width="83.0253" height="60.5949" filterUnits="userSpaceOnUse" color-interpolation-filters="sRGB">
<feFlood flood-opacity="0" result="BackgroundImageFix"/>
<feBlend mode="normal" in="SourceGraphic" in2="BackgroundImageFix" result="shape"/>
<feColorMatrix in="SourceAlpha" type="matrix" values="0 0 0 0 0 0 0 0 0 0 0 0 0 0 0 0 0 0 127 0" result="hardAlpha"/>
<feOffset dx="-3" dy="-3"/>
<feGaussianBlur stdDeviation="1.4"/>
<feComposite in2="hardAlpha" operator="arithmetic" k2="-1" k3="1"/>
<feColorMatrix type="matrix" values="0 0 0 0 0 0 0 0 0 0 0 0 0 0 0 0 0 0 0.25 0"/>
<feBlend mode="normal" in2="shape" result="effect1_innerShadow_90_48"/>
</filter>
<linearGradient id="paint0_linear_90_48" x1="95.4815" y1="10.5011" x2="95.8675" y2="20.3081" gradientUnits="userSpaceOnUse">
<stop stop-color="#807565"/>
<stop offset="1" stop-color="#1A1815"/>
</linearGradient>
<linearGradient id="paint1_linear_90_48" x1="-12.636" y1="64.6278" x2="58.1314" y2="13.3706" gradientUnits="userSpaceOnUse">
<stop offset="0.35" stop-color="#196B98"/>
<stop offset="0.86" stop-color="#2AB3FE"/>
</linearGradient>
<linearGradient id="paint2_linear_90_48" x1="93.0282" y1="15.7726" x2="93.2551" y2="21.5362" gradientUnits="userSpaceOnUse">
<stop stop-color="#807565"/>
<stop offset="1" stop-color="#1A1815"/>
</linearGradient>
<linearGradient id="paint3_linear_90_48" x1="56.7884" y1="26.5116" x2="57.2723" y2="43.3413" gradientUnits="userSpaceOnUse">
<stop stop-color="#807565"/>
<stop offset="1" stop-color="#1A1815"/>
</linearGradient>
<linearGradient id="paint4_linear_90_48" x1="173.904" y1="9.34437" x2="98.7351" y2="53.8974" gradientUnits="userSpaceOnUse">
<stop offset="0.305" stop-color="#2AB3FE"/>
<stop offset="1" stop-color="#196B98"/>
</linearGradient>
</defs>
</svg>
