<svg width="530" height="530" viewBox="0 0 530 530" fill="none" xmlns="http://www.w3.org/2000/svg">
<g id="Sonne final">
<g id="Ellipse 1" filter="url(#filter0_d_141_35)">
<circle cx="265.5" cy="264.249" r="99.5" fill="#FAEA39"/>
</g>
<g id="Subtract" filter="url(#filter1_d_141_35)">
<path fill-rule="evenodd" clip-rule="evenodd" d="M241.829 347.102C296.781 347.102 341.329 302.554 341.329 247.602C341.329 219.356 329.559 193.86 310.657 175.749C343.091 192.144 365.329 225.776 365.329 264.602C365.329 319.554 320.781 364.102 265.829 364.102C239.122 364.102 214.872 353.58 197 336.455C210.472 343.265 225.702 347.102 241.829 347.102Z" fill="#F3FA39"/>
</g>
<g id="Group 31">
<g id="Group 29">
<path id="Vector 2" d="M266.566 78L266 135.497" stroke="#F3FA39" stroke-width="10" stroke-linecap="round"/>
<path id="Vector 3" d="M264.566 394L264 451.497" stroke="#F3FA39" stroke-width="10" stroke-linecap="round"/>
<path id="Vector 4" d="M452.5 270H395" stroke="#F3FA39" stroke-width="10" stroke-linecap="round"/>
<path id="Vector 5" d="M135.5 270H78" stroke="#F3FA39" stroke-width="10" stroke-linecap="round"/>
</g>
<g id="Group 30">
<path id="Vector 2_2" d="M134.13 131.767L174.386 172.824" stroke="#F3FA39" stroke-width="10" stroke-linecap="round"/>
<path id="Vector 3_2" d="M356.161 356.626L396.417 397.684" stroke="#F3FA39" stroke-width="10" stroke-linecap="round"/>
<path id="Vector 4_2" d="M401.369 136.056L360.71 176.715" stroke="#F3FA39" stroke-width="10" stroke-linecap="round"/>
<path id="Vector 5_2" d="M177.216 360.209L136.558 400.868" stroke="#F3FA39" stroke-width="10" stroke-linecap="round"/>
</g>
</g>
</g>
<defs>
<filter id="filter0_d_141_35" x="162" y="164.749" width="207" height="207" filterUnits="userSpaceOnUse" color-interpolation-filters="sRGB">
<feFlood flood-opacity="0" result="BackgroundImageFix"/>
<feColorMatrix in="SourceAlpha" type="matrix" values="0 0 0 0 0 0 0 0 0 0 0 0 0 0 0 0 0 0 127 0" result="hardAlpha"/>
<feOffset dy="4"/>
<feGaussianBlur stdDeviation="2"/>
<feComposite in2="hardAlpha" operator="out"/>
<feColorMatrix type="matrix" values="0 0 0 0 0 0 0 0 0 0 0 0 0 0 0 0 0 0 0.25 0"/>
<feBlend mode="normal" in2="BackgroundImageFix" result="effect1_dropShadow_141_35"/>
<feBlend mode="normal" in="SourceGraphic" in2="effect1_dropShadow_141_35" result="shape"/>
</filter>
<filter id="filter1_d_141_35" x="193" y="175.749" width="176.328" height="196.354" filterUnits="userSpaceOnUse" color-interpolation-filters="sRGB">
<feFlood flood-opacity="0" result="BackgroundImageFix"/>
<feColorMatrix in="SourceAlpha" type="matrix" values="0 0 0 0 0 0 0 0 0 0 0 0 0 0 0 0 0 0 127 0" result="hardAlpha"/>
<feOffset dy="4"/>
<feGaussianBlur stdDeviation="2"/>
<feComposite in2="hardAlpha" operator="out"/>
<feColorMatrix type="matrix" values="0 0 0 0 0 0 0 0 0 0 0 0 0 0 0 0 0 0 0.25 0"/>
<feBlend mode="normal" in2="BackgroundImageFix" result="effect1_dropShadow_141_35"/>
<feBlend mode="normal" in="SourceGraphic" in2="effect1_dropShadow_141_35" result="shape"/>
</filter>
</defs>
</svg>
