<svg width="1440" height="399" viewBox="0 0 1440 399" fill="none" xmlns="http://www.w3.org/2000/svg">
<g id="Wolken sonnig">
<g id="Union" filter="url(#filter0_iif_95_3)">
<path fill-rule="evenodd" clip-rule="evenodd" d="M1288.17 214.902C1254.09 222.01 1212.74 226.174 1168.16 226.174C1051.54 226.174 957 197.673 957 162.516C957 127.359 1051.54 98.859 1168.16 98.859C1175.58 98.859 1182.9 98.9741 1190.11 99.1987C1185.05 93.8051 1182.35 88.1139 1182.35 82.2321C1182.35 47.8623 1274.77 20 1388.78 20C1493.77 20 1580.46 43.6261 1593.52 74.2037C1611.59 72.0276 1631.31 70.8308 1651.95 70.8308C1735.79 70.8308 1804.33 90.5659 1809.26 115.466C1875.24 121.852 1923 140.503 1923 162.516C1923 189.802 1849.62 211.922 1759.11 211.922C1720.58 211.922 1685.16 207.914 1657.18 201.206C1621.63 223.562 1545.86 239 1458.12 239C1389.75 239 1328.64 229.623 1288.17 214.902Z" fill="#D9D9D9"/>
</g>
<g id="Union_2" filter="url(#filter1_iif_95_3)">
<path fill-rule="evenodd" clip-rule="evenodd" d="M-78.8314 374.902C-112.909 382.01 -154.259 386.174 -198.835 386.174C-315.458 386.174 -410 357.673 -410 322.516C-410 287.359 -315.458 258.859 -198.835 258.859C-191.424 258.859 -184.102 258.974 -176.887 259.199C-181.946 253.805 -184.653 248.114 -184.653 242.232C-184.653 207.862 -92.2275 180 21.7846 180C126.773 180 213.455 203.626 226.52 234.204C244.589 232.028 264.307 230.831 284.953 230.831C368.788 230.831 437.333 250.566 442.255 275.466C508.242 281.852 556 300.503 556 322.516C556 349.802 482.624 371.922 392.111 371.922C353.583 371.922 318.159 367.914 290.179 361.206C254.629 383.562 178.856 399 91.1224 399C22.7466 399 -38.3642 389.623 -78.8314 374.902Z" fill="#D9D9D9"/>
</g>
</g>
<defs>
<filter id="filter0_iif_95_3" x="937" y="-5" width="1016" height="264" filterUnits="userSpaceOnUse" color-interpolation-filters="sRGB">
<feFlood flood-opacity="0" result="BackgroundImageFix"/>
<feBlend mode="normal" in="SourceGraphic" in2="BackgroundImageFix" result="shape"/>
<feColorMatrix in="SourceAlpha" type="matrix" values="0 0 0 0 0 0 0 0 0 0 0 0 0 0 0 0 0 0 127 0" result="hardAlpha"/>
<feOffset dx="30" dy="-25"/>
<feGaussianBlur stdDeviation="30"/>
<feComposite in2="hardAlpha" operator="arithmetic" k2="-1" k3="1"/>
<feColorMatrix type="matrix" values="0 0 0 0 0.588235 0 0 0 0 0.803922 0 0 0 0 0.980392 0 0 0 1 0"/>
<feBlend mode="normal" in2="shape" result="effect1_innerShadow_95_3"/>
<feColorMatrix in="SourceAlpha" type="matrix" values="0 0 0 0 0 0 0 0 0 0 0 0 0 0 0 0 0 0 127 0" result="hardAlpha"/>
<feOffset dx="10" dy="10"/>
<feGaussianBlur stdDeviation="5"/>
<feComposite in2="hardAlpha" operator="arithmetic" k2="-1" k3="1"/>
<feColorMatrix type="matrix" values="0 0 0 0 0.588235 0 0 0 0 0.803922 0 0 0 0 0.980392 0 0 0 1 0"/>
<feBlend mode="normal" in2="effect1_innerShadow_95_3" result="effect2_innerShadow_95_3"/>
<feGaussianBlur stdDeviation="10" result="effect3_foregroundBlur_95_3"/>
</filter>
<filter id="filter1_iif_95_3" x="-430" y="155" width="1016" height="264" filterUnits="userSpaceOnUse" color-interpolation-filters="sRGB">
<feFlood flood-opacity="0" result="BackgroundImageFix"/>
<feBlend mode="normal" in="SourceGraphic" in2="BackgroundImageFix" result="shape"/>
<feColorMatrix in="SourceAlpha" type="matrix" values="0 0 0 0 0 0 0 0 0 0 0 0 0 0 0 0 0 0 127 0" result="hardAlpha"/>
<feOffset dx="30" dy="-25"/>
<feGaussianBlur stdDeviation="30"/>
<feComposite in2="hardAlpha" operator="arithmetic" k2="-1" k3="1"/>
<feColorMatrix type="matrix" values="0 0 0 0 0.588235 0 0 0 0 0.803922 0 0 0 0 0.980392 0 0 0 1 0"/>
<feBlend mode="normal" in2="shape" result="effect1_innerShadow_95_3"/>
<feColorMatrix in="SourceAlpha" type="matrix" values="0 0 0 0 0 0 0 0 0 0 0 0 0 0 0 0 0 0 127 0" result="hardAlpha"/>
<feOffset dx="10" dy="10"/>
<feGaussianBlur stdDeviation="5"/>
<feComposite in2="hardAlpha" operator="arithmetic" k2="-1" k3="1"/>
<feColorMatrix type="matrix" values="0 0 0 0 0.588235 0 0 0 0 0.803922 0 0 0 0 0.980392 0 0 0 1 0"/>
<feBlend mode="normal" in2="effect1_innerShadow_95_3" result="effect2_innerShadow_95_3"/>
<feGaussianBlur stdDeviation="10" result="effect3_foregroundBlur_95_3"/>
</filter>
</defs>
</svg>
